<svg width="339" height="329" viewBox="0 0 339 329" fill="none" xmlns="http://www.w3.org/2000/svg">
<path d="M222.731 54.0951C244.53 64.2603 263.063 80.2787 276.205 100.314C289.347 120.35 296.567 143.592 297.036 167.376C297.506 191.16 291.206 214.524 278.86 234.79C266.514 255.056 248.62 271.404 227.23 281.959L209.871 247.93C224.845 240.541 237.37 229.098 246.013 214.912C254.655 200.726 259.065 184.371 258.736 167.722C258.407 151.073 253.354 134.804 244.154 120.779C234.955 106.754 221.982 95.5411 206.722 88.4255L222.731 54.0951Z" fill="#A2A9B0" stroke="white"/>
<path d="M227.667 281.742C210.547 290.273 191.663 294.837 172.426 295.094C153.189 295.351 134.096 291.295 116.576 283.227C99.0547 275.16 83.5585 263.29 71.2449 248.506C58.9313 233.721 50.1189 216.404 45.4662 197.849L82.637 189.053C85.8939 202.042 92.0626 214.164 100.682 224.513C109.302 234.862 120.149 243.171 132.414 248.818C144.678 254.465 158.043 257.305 171.509 257.125C184.975 256.945 198.194 253.75 210.178 247.778L227.667 281.742Z" fill="#878D96" stroke="white"/>
<path d="M45.3951 197.563C39.6362 174.368 40.5836 150.1 48.1283 127.552C55.673 105.004 69.5086 85.0926 88.0432 70.1076C106.578 55.1227 129.059 45.6734 152.899 42.8469C176.739 40.0203 200.971 43.9314 222.806 54.1301L206.775 88.4499C191.49 81.3108 174.528 78.5731 157.84 80.5517C141.152 82.5303 125.415 89.1448 112.441 99.6342C99.4668 110.124 89.7819 124.062 84.5006 139.845C79.2192 155.629 78.5561 172.616 82.5873 188.853L45.3951 197.563Z" fill="#515151" stroke="white"/>
</svg>
