<svg width="552" height="276" viewBox="0 0 552 276" fill="none" xmlns="http://www.w3.org/2000/svg">
<path d="M23.1531 13.0909V2.18182H23.8519V13.0909H23.1531ZM25.5053 5.45455C25.4542 5.02273 25.2468 4.6875 24.8832 4.44886C24.5195 4.21023 24.0735 4.09091 23.5451 4.09091C23.1587 4.09091 22.8207 4.15341 22.5309 4.27841C22.244 4.40341 22.0195 4.57528 21.8576 4.79403C21.6985 5.01278 21.619 5.26136 21.619 5.53977C21.619 5.77273 21.6744 5.97301 21.7852 6.14062C21.8988 6.3054 22.0437 6.44318 22.2198 6.55398C22.396 6.66193 22.5806 6.75142 22.7738 6.82244C22.967 6.89062 23.1445 6.94602 23.3065 6.98864L24.1928 7.22727C24.4201 7.28693 24.6729 7.36932 24.9513 7.47443C25.2326 7.57955 25.5011 7.72301 25.7567 7.90483C26.0153 8.08381 26.2283 8.31392 26.396 8.59517C26.5636 8.87642 26.6474 9.22159 26.6474 9.63068C26.6474 10.1023 26.5238 10.5284 26.2766 10.9091C26.0323 11.2898 25.6744 11.5923 25.2028 11.8168C24.734 12.0412 24.1644 12.1534 23.494 12.1534C22.869 12.1534 22.3278 12.0526 21.8704 11.8509C21.4158 11.6491 21.0579 11.3679 20.7965 11.0071C20.538 10.6463 20.3917 10.2273 20.3576 9.75H21.4485C21.4769 10.0795 21.5877 10.3523 21.7809 10.5682C21.9769 10.7812 22.2241 10.9403 22.5224 11.0455C22.8235 11.1477 23.1474 11.1989 23.494 11.1989C23.8974 11.1989 24.2596 11.1335 24.5806 11.0028C24.9016 10.8693 25.1559 10.6847 25.3434 10.4489C25.5309 10.2102 25.6246 9.93182 25.6246 9.61364C25.6246 9.32386 25.5437 9.08807 25.3817 8.90625C25.2198 8.72443 25.0067 8.5767 24.7425 8.46307C24.4783 8.34943 24.1928 8.25 23.886 8.16477L22.8121 7.85795C22.1303 7.66193 21.5906 7.3821 21.1928 7.01847C20.7951 6.65483 20.5962 6.17898 20.5962 5.59091C20.5962 5.10227 20.7283 4.67614 20.9925 4.3125C21.2596 3.94602 21.6175 3.66193 22.0664 3.46023C22.5181 3.25568 23.0224 3.15341 23.5792 3.15341C24.1417 3.15341 24.6417 3.25426 25.0792 3.45597C25.5167 3.65483 25.8633 3.92756 26.119 4.27415C26.3775 4.62074 26.5138 5.0142 26.5281 5.45455H25.5053ZM31.2997 3.27273V12H30.2429V4.38068H30.1918L28.0611 5.79545V4.72159L30.2429 3.27273H31.2997ZM33.8097 12V11.233L36.6903 8.07955C37.0284 7.71023 37.3068 7.3892 37.5256 7.11648C37.7443 6.84091 37.9063 6.58239 38.0114 6.34091C38.1193 6.09659 38.1733 5.84091 38.1733 5.57386C38.1733 5.26705 38.0994 5.00142 37.9517 4.77699C37.8068 4.55256 37.608 4.37926 37.3551 4.2571C37.1023 4.13494 36.8182 4.07386 36.5028 4.07386C36.1676 4.07386 35.875 4.14347 35.625 4.28267C35.3778 4.41903 35.1861 4.6108 35.0497 4.85795C34.9162 5.10511 34.8494 5.39489 34.8494 5.72727H33.8438C33.8438 5.21591 33.9616 4.76705 34.1974 4.38068C34.4332 3.99432 34.7543 3.69318 35.1605 3.47727C35.5696 3.26136 36.0284 3.15341 36.5369 3.15341C37.0483 3.15341 37.5014 3.26136 37.8963 3.47727C38.2912 3.69318 38.6009 3.98437 38.8253 4.35085C39.0497 4.71733 39.1619 5.125 39.1619 5.57386C39.1619 5.89489 39.1037 6.20881 38.9872 6.51562C38.8736 6.8196 38.6747 7.15909 38.3906 7.53409C38.1094 7.90625 37.7188 8.3608 37.2188 8.89773L35.2585 10.9943V11.0625H39.3153V12H33.8097ZM41.2287 12V3.27273H42.2855V7.60227H42.3878L46.3082 3.27273H47.6889L44.0241 7.21023L47.6889 12H46.4105L43.3764 7.94318L42.2855 9.17045V12H41.2287Z" fill="#697077"/>
<line x1="56" y1="7" x2="543.27" y2="7" stroke="#F5F5F5"/>
<path d="M24.8406 33.8668V22.9577H25.5394V33.8668H24.8406ZM27.1928 26.2304C27.1417 25.7986 26.9343 25.4634 26.5707 25.2247C26.207 24.9861 25.761 24.8668 25.2326 24.8668C24.8462 24.8668 24.5082 24.9293 24.2184 25.0543C23.9315 25.1793 23.707 25.3512 23.5451 25.5699C23.386 25.7887 23.3065 26.0372 23.3065 26.3157C23.3065 26.5486 23.3619 26.7489 23.4727 26.9165C23.5863 27.0813 23.7312 27.2191 23.9073 27.3299C24.0835 27.4378 24.2681 27.5273 24.4613 27.5983C24.6545 27.6665 24.832 27.7219 24.994 27.7645L25.8803 28.0032C26.1076 28.0628 26.3604 28.1452 26.6388 28.2503C26.9201 28.3554 27.1886 28.4989 27.4442 28.6807C27.7028 28.8597 27.9158 29.0898 28.0835 29.371C28.2511 29.6523 28.3349 29.9975 28.3349 30.4066C28.3349 30.8782 28.2113 31.3043 27.9641 31.685C27.7198 32.0657 27.3619 32.3682 26.8903 32.5926C26.4215 32.8171 25.8519 32.9293 25.1815 32.9293C24.5565 32.9293 24.0153 32.8284 23.5579 32.6267C23.1033 32.425 22.7454 32.1438 22.484 31.783C22.2255 31.4222 22.0792 31.0032 22.0451 30.5259H23.136C23.1644 30.8554 23.2752 31.1282 23.4684 31.3441C23.6644 31.5571 23.9116 31.7162 24.2099 31.8213C24.511 31.9236 24.8349 31.9747 25.1815 31.9747C25.5849 31.9747 25.9471 31.9094 26.2681 31.7787C26.5891 31.6452 26.8434 31.4605 27.0309 31.2247C27.2184 30.9861 27.3121 30.7077 27.3121 30.3895C27.3121 30.0997 27.2312 29.8639 27.0692 29.6821C26.9073 29.5003 26.6942 29.3526 26.43 29.2389C26.1658 29.1253 25.8803 29.0259 25.5735 28.9407L24.4996 28.6338C23.8178 28.4378 23.2781 28.158 22.8803 27.7943C22.4826 27.4307 22.2837 26.9549 22.2837 26.3668C22.2837 25.8782 22.4158 25.452 22.68 25.0884C22.9471 24.7219 23.305 24.4378 23.7539 24.2361C24.2056 24.0316 24.7099 23.9293 25.2667 23.9293C25.8292 23.9293 26.3292 24.0301 26.7667 24.2318C27.2042 24.4307 27.5508 24.7034 27.8065 25.05C28.065 25.3966 28.2013 25.7901 28.2156 26.2304H27.1928ZM32.9872 24.0486V32.7759H31.9304V25.1566H31.8793L29.7486 26.5713V25.4975L31.9304 24.0486H32.9872ZM38.5653 24.0486V32.7759H37.5085V25.1566H37.4574L35.3267 26.5713V25.4975L37.5085 24.0486H38.5653ZM41.2287 32.7759V24.0486H42.2855V28.3782H42.3878L46.3082 24.0486H47.6889L44.0241 27.9861L47.6889 32.7759H46.4105L43.3764 28.7191L42.2855 29.9463V32.7759H41.2287Z" fill="#697077"/>
<line x1="56" y1="27.7759" x2="543.27" y2="27.7759" stroke="#F5F5F5"/>
<path d="M22.9187 54.6424V43.7333H23.6175V54.6424H22.9187ZM25.271 47.0061C25.2198 46.5742 25.0124 46.239 24.6488 46.0004C24.2852 45.7617 23.8391 45.6424 23.3107 45.6424C22.9244 45.6424 22.5863 45.7049 22.2965 45.8299C22.0096 45.9549 21.7852 46.1268 21.6232 46.3455C21.4641 46.5643 21.3846 46.8129 21.3846 47.0913C21.3846 47.3242 21.44 47.5245 21.5508 47.6921C21.6644 47.8569 21.8093 47.9947 21.9854 48.1055C22.1616 48.2134 22.3462 48.3029 22.5394 48.374C22.7326 48.4421 22.9102 48.4975 23.0721 48.5401L23.9585 48.7788C24.1857 48.8384 24.4386 48.9208 24.717 49.0259C24.9982 49.1311 25.2667 49.2745 25.5224 49.4563C25.7809 49.6353 25.994 49.8654 26.1616 50.1467C26.3292 50.4279 26.413 50.7731 26.413 51.1822C26.413 51.6538 26.2894 52.0799 26.0423 52.4606C25.7979 52.8413 25.44 53.1438 24.9684 53.3683C24.4996 53.5927 23.93 53.7049 23.2596 53.7049C22.6346 53.7049 22.0934 53.6041 21.636 53.4024C21.1815 53.2007 20.8235 52.9194 20.5621 52.5586C20.3036 52.1978 20.1573 51.7788 20.1232 51.3015H21.2141C21.2425 51.6311 21.3533 51.9038 21.5465 52.1197C21.7425 52.3328 21.9897 52.4919 22.288 52.597C22.5891 52.6992 22.913 52.7504 23.2596 52.7504C23.663 52.7504 24.0252 52.685 24.3462 52.5544C24.6673 52.4208 24.9215 52.2362 25.109 52.0004C25.2965 51.7617 25.3903 51.4833 25.3903 51.1651C25.3903 50.8754 25.3093 50.6396 25.1474 50.4578C24.9854 50.2759 24.7724 50.1282 24.5082 50.0146C24.244 49.9009 23.9585 49.8015 23.6516 49.7163L22.5778 49.4095C21.896 49.2134 21.3562 48.9336 20.9585 48.57C20.5607 48.2063 20.3619 47.7305 20.3619 47.1424C20.3619 46.6538 20.494 46.2276 20.7582 45.864C21.0252 45.4975 21.3832 45.2134 21.832 45.0117C22.2837 44.8072 22.788 44.7049 23.3448 44.7049C23.9073 44.7049 24.4073 44.8058 24.8448 45.0075C25.2823 45.2063 25.6289 45.4791 25.8846 45.8257C26.1431 46.1723 26.2795 46.5657 26.2937 47.0061H25.271ZM31.0653 44.8242V53.5515H30.0085V45.9322H29.9574L27.8267 47.347V46.2731L30.0085 44.8242H31.0653ZM36.4219 53.6708C35.7798 53.6708 35.233 53.4961 34.7812 53.1467C34.3295 52.7944 33.9844 52.2845 33.7457 51.6169C33.5071 50.9464 33.3878 50.1367 33.3878 49.1879C33.3878 48.2447 33.5071 47.4393 33.7457 46.7717C33.9872 46.1012 34.3338 45.5899 34.7855 45.2376C35.2401 44.8825 35.7855 44.7049 36.4219 44.7049C37.0582 44.7049 37.6023 44.8825 38.054 45.2376C38.5085 45.5899 38.8551 46.1012 39.0938 46.7717C39.3352 47.4393 39.456 48.2447 39.456 49.1879C39.456 50.1367 39.3366 50.9464 39.098 51.6169C38.8594 52.2845 38.5142 52.7944 38.0625 53.1467C37.6108 53.4961 37.0639 53.6708 36.4219 53.6708ZM36.4219 52.7333C37.0582 52.7333 37.5526 52.4265 37.9048 51.8129C38.2571 51.1992 38.4332 50.3242 38.4332 49.1879C38.4332 48.4322 38.3523 47.7887 38.1903 47.2575C38.0313 46.7262 37.8011 46.3214 37.5 46.043C37.2017 45.7646 36.8423 45.6254 36.4219 45.6254C35.7912 45.6254 35.2983 45.9365 34.9432 46.5586C34.5881 47.1779 34.4105 48.0544 34.4105 49.1879C34.4105 49.9436 34.4901 50.5856 34.6491 51.114C34.8082 51.6424 35.0369 52.0444 35.3352 52.32C35.6364 52.5955 35.9986 52.7333 36.4219 52.7333ZM41.2287 53.5515V44.8242H42.2855V49.1538H42.3878L46.3082 44.8242H47.6889L44.0241 48.7617L47.6889 53.5515H46.4105L43.3764 49.4947L42.2855 50.722V53.5515H41.2287Z" fill="#697077"/>
<line x1="56" y1="48.5515" x2="543.27" y2="48.5515" stroke="#F5F5F5"/>
<path d="M28.5085 75.4183V64.5092H29.2074V75.4183H28.5085ZM30.8608 67.7819C30.8097 67.3501 30.6023 67.0149 30.2386 66.7763C29.875 66.5376 29.429 66.4183 28.9006 66.4183C28.5142 66.4183 28.1761 66.4808 27.8864 66.6058C27.5994 66.7308 27.375 66.9027 27.2131 67.1214C27.054 67.3402 26.9744 67.5888 26.9744 67.8672C26.9744 68.1001 27.0298 68.3004 27.1406 68.468C27.2543 68.6328 27.3991 68.7706 27.5753 68.8814C27.7514 68.9893 27.9361 69.0788 28.1293 69.1498C28.3224 69.218 28.5 69.2734 28.6619 69.316L29.5483 69.5547C29.7756 69.6143 30.0284 69.6967 30.3068 69.8018C30.5881 69.9069 30.8565 70.0504 31.1122 70.2322C31.3707 70.4112 31.5838 70.6413 31.7514 70.9226C31.919 71.2038 32.0028 71.549 32.0028 71.9581C32.0028 72.4297 31.8793 72.8558 31.6321 73.2365C31.3878 73.6172 31.0298 73.9197 30.5582 74.1442C30.0895 74.3686 29.5199 74.4808 28.8494 74.4808C28.2244 74.4808 27.6832 74.3799 27.2259 74.1782C26.7713 73.9765 26.4134 73.6953 26.152 73.3345C25.8935 72.9737 25.7472 72.5547 25.7131 72.0774H26.804C26.8324 72.4069 26.9432 72.6797 27.1364 72.8956C27.3324 73.1086 27.5795 73.2677 27.8778 73.3728C28.179 73.4751 28.5028 73.5263 28.8494 73.5263C29.2528 73.5263 29.6151 73.4609 29.9361 73.3302C30.2571 73.1967 30.5114 73.0121 30.6989 72.7763C30.8864 72.5376 30.9801 72.2592 30.9801 71.941C30.9801 71.6513 30.8991 71.4155 30.7372 71.2336C30.5753 71.0518 30.3622 70.9041 30.098 70.7905C29.8338 70.6768 29.5483 70.5774 29.2415 70.4922L28.1676 70.1853C27.4858 69.9893 26.946 69.7095 26.5483 69.3459C26.1506 68.9822 25.9517 68.5064 25.9517 67.9183C25.9517 67.4297 26.0838 67.0035 26.348 66.6399C26.6151 66.2734 26.973 65.9893 27.4219 65.7876C27.8736 65.5831 28.3778 65.4808 28.9347 65.4808C29.4972 65.4808 29.9972 65.5817 30.4347 65.7834C30.8722 65.9822 31.2188 66.2549 31.4744 66.6015C31.733 66.9481 31.8693 67.3416 31.8835 67.7819H30.8608ZM36.3654 65.4808C36.7234 65.4836 37.0813 65.5518 37.4393 65.6853C37.7972 65.8189 38.1239 66.0405 38.4194 66.3501C38.7148 66.6569 38.9521 67.076 39.131 67.6072C39.31 68.1385 39.3995 68.8047 39.3995 69.6058C39.3995 70.3814 39.3256 71.0703 39.1779 71.6726C39.033 72.272 38.8228 72.7777 38.5472 73.1896C38.2745 73.6015 37.9421 73.914 37.5501 74.1271C37.1609 74.3402 36.7205 74.4467 36.229 74.4467C35.7404 74.4467 35.3043 74.3501 34.9208 74.1569C34.5401 73.9609 34.2276 73.6896 33.9833 73.343C33.7418 72.9936 33.587 72.5888 33.5188 72.1285H34.5586C34.6523 72.5291 34.8384 72.8601 35.1168 73.1214C35.3981 73.3799 35.7688 73.5092 36.229 73.5092C36.9023 73.5092 37.4336 73.2152 37.8228 72.6271C38.2148 72.039 38.4109 71.2081 38.4109 70.1342H38.3427C38.1836 70.3728 37.9947 70.5788 37.7759 70.7521C37.5572 70.9254 37.3143 71.0589 37.0472 71.1527C36.7802 71.2464 36.4961 71.2933 36.195 71.2933C35.695 71.2933 35.2362 71.1697 34.8185 70.9226C34.4038 70.6726 34.0714 70.3302 33.8214 69.8956C33.5742 69.4581 33.4506 68.9581 33.4506 68.3956C33.4506 67.8615 33.57 67.3728 33.8086 66.9297C34.0501 66.4836 34.3881 66.1285 34.8228 65.8643C35.2603 65.6001 35.7745 65.4723 36.3654 65.4808ZM36.3654 66.4183C36.0075 66.4183 35.685 66.5078 35.3981 66.6868C35.114 66.8629 34.8881 67.1015 34.7205 67.4027C34.5558 67.701 34.4734 68.0319 34.4734 68.3956C34.4734 68.7592 34.5529 69.0902 34.712 69.3885C34.8739 69.6839 35.0941 69.9197 35.3725 70.0959C35.6538 70.2692 35.9734 70.3558 36.3313 70.3558C36.6012 70.3558 36.8526 70.3032 37.0856 70.1981C37.3185 70.0902 37.5217 69.9439 37.695 69.7592C37.8711 69.5717 38.0089 69.3601 38.1083 69.1243C38.2077 68.8856 38.2575 68.6371 38.2575 68.3785C38.2575 68.0376 38.1751 67.718 38.0103 67.4197C37.8484 67.1214 37.6239 66.8799 37.337 66.6953C37.0529 66.5106 36.729 66.4183 36.3654 66.4183ZM41.2287 74.3274V65.6001H42.2855V69.9297H42.3878L46.3082 65.6001H47.6889L44.0241 69.5376L47.6889 74.3274H46.4105L43.3764 70.2706L42.2855 71.4978V74.3274H41.2287Z" fill="#697077"/>
<line x1="56" y1="69.3274" x2="543.27" y2="69.3274" stroke="#F5F5F5"/>
<path d="M28.6023 96.1939V85.2848H29.3011V96.1939H28.6023ZM30.9545 88.5576C30.9034 88.1258 30.696 87.7905 30.3324 87.5519C29.9688 87.3133 29.5227 87.1939 28.9943 87.1939C28.608 87.1939 28.2699 87.2564 27.9801 87.3814C27.6932 87.5064 27.4688 87.6783 27.3068 87.8971C27.1477 88.1158 27.0682 88.3644 27.0682 88.6428C27.0682 88.8758 27.1236 89.076 27.2344 89.2437C27.348 89.4084 27.4929 89.5462 27.669 89.657C27.8452 89.765 28.0298 89.8544 28.223 89.9255C28.4162 89.9937 28.5938 90.049 28.7557 90.0917L29.642 90.3303C29.8693 90.39 30.1222 90.4723 30.4006 90.5775C30.6818 90.6826 30.9503 90.826 31.206 91.0079C31.4645 91.1868 31.6776 91.4169 31.8452 91.6982C32.0128 91.9794 32.0966 92.3246 32.0966 92.7337C32.0966 93.2053 31.973 93.6314 31.7259 94.0121C31.4815 94.3928 31.1236 94.6954 30.652 94.9198C30.1832 95.1442 29.6136 95.2564 28.9432 95.2564C28.3182 95.2564 27.777 95.1556 27.3196 94.9539C26.8651 94.7522 26.5071 94.4709 26.2457 94.1101C25.9872 93.7493 25.8409 93.3303 25.8068 92.853H26.8977C26.9261 93.1826 27.0369 93.4553 27.2301 93.6712C27.4261 93.8843 27.6733 94.0434 27.9716 94.1485C28.2727 94.2508 28.5966 94.3019 28.9432 94.3019C29.3466 94.3019 29.7088 94.2366 30.0298 94.1059C30.3509 93.9723 30.6051 93.7877 30.7926 93.5519C30.9801 93.3133 31.0739 93.0348 31.0739 92.7167C31.0739 92.4269 30.9929 92.1911 30.831 92.0093C30.669 91.8275 30.456 91.6797 30.1918 91.5661C29.9276 91.4525 29.642 91.353 29.3352 91.2678L28.2614 90.961C27.5795 90.765 27.0398 90.4851 26.642 90.1215C26.2443 89.7579 26.0455 89.282 26.0455 88.6939C26.0455 88.2053 26.1776 87.7792 26.4418 87.4155C26.7088 87.049 27.0668 86.765 27.5156 86.5633C27.9673 86.3587 28.4716 86.2564 29.0284 86.2564C29.5909 86.2564 30.0909 86.3573 30.5284 86.559C30.9659 86.7579 31.3125 87.0306 31.5682 87.3772C31.8267 87.7238 31.9631 88.1172 31.9773 88.5576H30.9545ZM36.4762 95.2223C35.891 95.2223 35.3739 95.1187 34.9251 94.9113C34.479 94.701 34.131 94.4127 33.881 94.0462C33.631 93.6769 33.5075 93.2564 33.5103 92.7848C33.5075 92.4155 33.5799 92.0746 33.7276 91.7621C33.8754 91.4468 34.0771 91.184 34.3327 90.9738C34.5913 90.7607 34.8796 90.6258 35.1978 90.5689V90.5178C34.7802 90.4098 34.4478 90.1755 34.2006 89.8147C33.9535 89.451 33.8313 89.0377 33.8342 88.5746C33.8313 88.1314 33.9435 87.7351 34.1708 87.3857C34.3981 87.0363 34.7106 86.7607 35.1083 86.559C35.5089 86.3573 35.9648 86.2564 36.4762 86.2564C36.9819 86.2564 37.4336 86.3573 37.8313 86.559C38.229 86.7607 38.5415 87.0363 38.7688 87.3857C38.9989 87.7351 39.1154 88.1314 39.1183 88.5746C39.1154 89.0377 38.989 89.451 38.739 89.8147C38.4918 90.1755 38.1637 90.4098 37.7546 90.5178V90.5689C38.07 90.6258 38.354 90.7607 38.6069 90.9738C38.8597 91.184 39.0614 91.4468 39.212 91.7621C39.3626 92.0746 39.4393 92.4155 39.4421 92.7848C39.4393 93.2564 39.3114 93.6769 39.0586 94.0462C38.8086 94.4127 38.4606 94.701 38.0146 94.9113C37.5714 95.1187 37.0586 95.2223 36.4762 95.2223ZM36.4762 94.2848C36.8711 94.2848 37.212 94.2209 37.4989 94.0931C37.7859 93.9652 38.0075 93.7848 38.1637 93.5519C38.32 93.3189 38.3995 93.0462 38.4023 92.7337C38.3995 92.4042 38.3143 92.113 38.1467 91.8601C37.979 91.6073 37.7504 91.4084 37.4606 91.2635C37.1737 91.1187 36.8455 91.0462 36.4762 91.0462C36.104 91.0462 35.7717 91.1187 35.479 91.2635C35.1893 91.4084 34.9606 91.6073 34.793 91.8601C34.6282 92.113 34.5472 92.4042 34.5501 92.7337C34.5472 93.0462 34.6225 93.3189 34.7759 93.5519C34.9322 93.7848 35.1552 93.9652 35.445 94.0931C35.7347 94.2209 36.0785 94.2848 36.4762 94.2848ZM36.4762 90.1428C36.7887 90.1428 37.0657 90.0803 37.3072 89.9553C37.5515 89.8303 37.7433 89.6556 37.8825 89.4312C38.0217 89.2067 38.0927 88.9439 38.0955 88.6428C38.0927 88.3473 38.0231 88.0902 37.8867 87.8715C37.7504 87.6499 37.5614 87.4794 37.32 87.3601C37.0785 87.238 36.7972 87.1769 36.4762 87.1769C36.1495 87.1769 35.864 87.238 35.6197 87.3601C35.3754 87.4794 35.1864 87.6499 35.0529 87.8715C34.9194 88.0902 34.854 88.3473 34.8569 88.6428C34.854 88.9439 34.9208 89.2067 35.0572 89.4312C35.1964 89.6556 35.3881 89.8303 35.6325 89.9553C35.8768 90.0803 36.158 90.1428 36.4762 90.1428ZM41.2287 95.103V86.3758H42.2855V90.7053H42.3878L46.3082 86.3758H47.6889L44.0241 90.3133L47.6889 95.103H46.4105L43.3764 91.0462L42.2855 92.2735V95.103H41.2287Z" fill="#697077"/>
<line x1="56" y1="90.103" x2="543.27" y2="90.103" stroke="#F5F5F5"/>
<path d="M29.1413 116.97V106.061H29.8402V116.97H29.1413ZM31.4936 109.333C31.4425 108.902 31.2351 108.566 30.8714 108.328C30.5078 108.089 30.0618 107.97 29.5334 107.97C29.147 107.97 28.8089 108.032 28.5192 108.157C28.2322 108.282 28.0078 108.454 27.8459 108.673C27.6868 108.892 27.6072 109.14 27.6072 109.419C27.6072 109.652 27.6626 109.852 27.7734 110.02C27.8871 110.184 28.032 110.322 28.2081 110.433C28.3842 110.541 28.5689 110.63 28.7621 110.701C28.9553 110.77 29.1328 110.825 29.2947 110.868L30.1811 111.106C30.4084 111.166 30.6612 111.248 30.9396 111.353C31.2209 111.458 31.4893 111.602 31.745 111.784C32.0036 111.963 32.2166 112.193 32.3842 112.474C32.5518 112.755 32.6357 113.1 32.6357 113.51C32.6357 113.981 32.5121 114.407 32.2649 114.788C32.0206 115.169 31.6626 115.471 31.1911 115.696C30.7223 115.92 30.1527 116.032 29.4822 116.032C28.8572 116.032 28.3161 115.931 27.8587 115.73C27.4041 115.528 27.0462 115.247 26.7848 114.886C26.5263 114.525 26.38 114.106 26.3459 113.629H27.4368C27.4652 113.958 27.576 114.231 27.7692 114.447C27.9652 114.66 28.2124 114.819 28.5107 114.924C28.8118 115.027 29.1357 115.078 29.4822 115.078C29.8857 115.078 30.2479 115.012 30.5689 114.882C30.8899 114.748 31.1442 114.564 31.3317 114.328C31.5192 114.089 31.6129 113.811 31.6129 113.493C31.6129 113.203 31.532 112.967 31.37 112.785C31.2081 112.603 30.995 112.456 30.7308 112.342C30.4666 112.228 30.1811 112.129 29.8743 112.044L28.8004 111.737C28.1186 111.541 27.5788 111.261 27.1811 110.897C26.7834 110.534 26.5845 110.058 26.5845 109.47C26.5845 108.981 26.7166 108.555 26.9808 108.191C27.2479 107.825 27.6058 107.541 28.0547 107.339C28.5064 107.135 29.0107 107.032 29.5675 107.032C30.13 107.032 30.63 107.133 31.0675 107.335C31.505 107.534 31.8516 107.806 32.1072 108.153C32.3658 108.5 32.5021 108.893 32.5163 109.333H31.4936ZM34.4925 115.879L38.396 108.157V108.089H33.896V107.152H39.4869V108.14L35.6005 115.879H34.4925ZM41.2287 115.879V107.152H42.2855V111.481H42.3878L46.3082 107.152H47.6889L44.0241 111.089L47.6889 115.879H46.4105L43.3764 111.822L42.2855 113.049V115.879H41.2287Z" fill="#697077"/>
<line x1="56" y1="110.879" x2="543.27" y2="110.879" stroke="#F5F5F5"/>
<path d="M28.5085 137.746V126.837H29.2074V137.746H28.5085ZM30.8608 130.109C30.8097 129.678 30.6023 129.342 30.2386 129.104C29.875 128.865 29.429 128.746 28.9006 128.746C28.5142 128.746 28.1761 128.808 27.8864 128.933C27.5994 129.058 27.375 129.23 27.2131 129.449C27.054 129.668 26.9744 129.916 26.9744 130.195C26.9744 130.428 27.0298 130.628 27.1406 130.795C27.2543 130.96 27.3991 131.098 27.5753 131.209C27.7514 131.317 27.9361 131.406 28.1293 131.477C28.3224 131.545 28.5 131.601 28.6619 131.643L29.5483 131.882C29.7756 131.942 30.0284 132.024 30.3068 132.129C30.5881 132.234 30.8565 132.378 31.1122 132.56C31.3707 132.739 31.5838 132.969 31.7514 133.25C31.919 133.531 32.0028 133.876 32.0028 134.285C32.0028 134.757 31.8793 135.183 31.6321 135.564C31.3878 135.945 31.0298 136.247 30.5582 136.472C30.0895 136.696 29.5199 136.808 28.8494 136.808C28.2244 136.808 27.6832 136.707 27.2259 136.506C26.7713 136.304 26.4134 136.023 26.152 135.662C25.8935 135.301 25.7472 134.882 25.7131 134.405H26.804C26.8324 134.734 26.9432 135.007 27.1364 135.223C27.3324 135.436 27.5795 135.595 27.8778 135.7C28.179 135.803 28.5028 135.854 28.8494 135.854C29.2528 135.854 29.6151 135.788 29.9361 135.658C30.2571 135.524 30.5114 135.339 30.6989 135.104C30.8864 134.865 30.9801 134.587 30.9801 134.268C30.9801 133.979 30.8991 133.743 30.7372 133.561C30.5753 133.379 30.3622 133.231 30.098 133.118C29.8338 133.004 29.5483 132.905 29.2415 132.82L28.1676 132.513C27.4858 132.317 26.946 132.037 26.5483 131.673C26.1506 131.31 25.9517 130.834 25.9517 130.246C25.9517 129.757 26.0838 129.331 26.348 128.967C26.6151 128.601 26.973 128.317 27.4219 128.115C27.8736 127.91 28.3778 127.808 28.9347 127.808C29.4972 127.808 29.9972 127.909 30.4347 128.111C30.8722 128.31 31.2188 128.582 31.4744 128.929C31.733 129.276 31.8693 129.669 31.8835 130.109H30.8608ZM36.4847 136.774C36.1268 136.768 35.7688 136.7 35.4109 136.57C35.0529 136.439 34.7262 136.219 34.4308 135.909C34.1353 135.597 33.8981 135.175 33.7191 134.643C33.5401 134.109 33.4506 133.439 33.4506 132.632C33.4506 131.859 33.5231 131.175 33.668 130.578C33.8129 129.979 34.0231 129.474 34.2987 129.065C34.5742 128.653 34.9066 128.341 35.2958 128.128C35.6879 127.915 36.1296 127.808 36.6211 127.808C37.1097 127.808 37.5444 127.906 37.9251 128.102C38.3086 128.295 38.6211 128.565 38.8626 128.912C39.104 129.258 39.2603 129.658 39.3313 130.109H38.2915C38.195 129.717 38.0075 129.392 37.729 129.133C37.4506 128.875 37.0813 128.746 36.6211 128.746C35.945 128.746 35.4123 129.04 35.0231 129.628C34.6367 130.216 34.4421 131.041 34.4393 132.104H34.5075C34.6665 131.862 34.8555 131.656 35.0742 131.486C35.2958 131.312 35.5401 131.179 35.8072 131.085C36.0742 130.991 36.3569 130.945 36.6552 130.945C37.1552 130.945 37.6126 131.07 38.0273 131.32C38.4421 131.567 38.7745 131.909 39.0245 132.347C39.2745 132.781 39.3995 133.28 39.3995 133.842C39.3995 134.382 39.2788 134.876 39.0373 135.325C38.7958 135.771 38.4563 136.126 38.0188 136.391C37.5842 136.652 37.0728 136.78 36.4847 136.774ZM36.4847 135.837C36.8427 135.837 37.1637 135.747 37.4478 135.568C37.7347 135.389 37.9606 135.149 38.1254 134.848C38.293 134.547 38.3768 134.212 38.3768 133.842C38.3768 133.481 38.2958 133.153 38.1339 132.858C37.9748 132.56 37.7546 132.322 37.4734 132.146C37.195 131.97 36.8768 131.882 36.5188 131.882C36.2489 131.882 35.9975 131.936 35.7646 132.044C35.5316 132.149 35.3271 132.294 35.1509 132.479C34.9776 132.663 34.8413 132.875 34.7418 133.114C34.6424 133.349 34.5927 133.598 34.5927 133.859C34.5927 134.206 34.6737 134.53 34.8356 134.831C35.0004 135.132 35.2248 135.375 35.5089 135.56C35.7958 135.744 36.1211 135.837 36.4847 135.837ZM41.2287 136.655V127.928H42.2855V132.257H42.3878L46.3082 127.928H47.6889L44.0241 131.865L47.6889 136.655H46.4105L43.3764 132.598L42.2855 133.825V136.655H41.2287Z" fill="#697077"/>
<line x1="56" y1="131.655" x2="543.27" y2="131.655" stroke="#F5F5F5"/>
<path d="M28.696 158.521V147.612H29.3949V158.521H28.696ZM31.0483 150.885C30.9972 150.453 30.7898 150.118 30.4261 149.879C30.0625 149.641 29.6165 149.521 29.0881 149.521C28.7017 149.521 28.3636 149.584 28.0739 149.709C27.7869 149.834 27.5625 150.006 27.4006 150.224C27.2415 150.443 27.1619 150.692 27.1619 150.97C27.1619 151.203 27.2173 151.403 27.3281 151.571C27.4418 151.736 27.5866 151.874 27.7628 151.984C27.9389 152.092 28.1236 152.182 28.3168 152.253C28.5099 152.321 28.6875 152.376 28.8494 152.419L29.7358 152.658C29.9631 152.717 30.2159 152.8 30.4943 152.905C30.7756 153.01 31.044 153.153 31.2997 153.335C31.5582 153.514 31.7713 153.744 31.9389 154.026C32.1065 154.307 32.1903 154.652 32.1903 155.061C32.1903 155.533 32.0668 155.959 31.8196 156.34C31.5753 156.72 31.2173 157.023 30.7457 157.247C30.277 157.472 29.7074 157.584 29.0369 157.584C28.4119 157.584 27.8707 157.483 27.4134 157.281C26.9588 157.08 26.6009 156.798 26.3395 156.438C26.081 156.077 25.9347 155.658 25.9006 155.18H26.9915C27.0199 155.51 27.1307 155.783 27.3239 155.999C27.5199 156.212 27.767 156.371 28.0653 156.476C28.3665 156.578 28.6903 156.629 29.0369 156.629C29.4403 156.629 29.8026 156.564 30.1236 156.433C30.4446 156.3 30.6989 156.115 30.8864 155.879C31.0739 155.641 31.1676 155.362 31.1676 155.044C31.1676 154.754 31.0866 154.518 30.9247 154.337C30.7628 154.155 30.5497 154.007 30.2855 153.893C30.0213 153.78 29.7358 153.68 29.429 153.595L28.3551 153.288C27.6733 153.092 27.1335 152.813 26.7358 152.449C26.3381 152.085 26.1392 151.609 26.1392 151.021C26.1392 150.533 26.2713 150.107 26.5355 149.743C26.8026 149.376 27.1605 149.092 27.6094 148.891C28.0611 148.686 28.5653 148.584 29.1222 148.584C29.6847 148.584 30.1847 148.685 30.6222 148.886C31.0597 149.085 31.4063 149.358 31.6619 149.705C31.9205 150.051 32.0568 150.445 32.071 150.885H31.0483ZM36.5018 157.55C36.0018 157.55 35.5515 157.45 35.1509 157.251C34.7504 157.053 34.4293 156.78 34.1879 156.433C33.9464 156.087 33.8143 155.692 33.7915 155.249H34.8143C34.854 155.643 35.033 155.97 35.3512 156.229C35.6722 156.484 36.0558 156.612 36.5018 156.612C36.8597 156.612 37.1779 156.528 37.4563 156.361C37.7376 156.193 37.9577 155.963 38.1168 155.67C38.2788 155.375 38.3597 155.041 38.3597 154.669C38.3597 154.288 38.2759 153.949 38.1083 153.651C37.9435 153.349 37.7163 153.112 37.4265 152.939C37.1367 152.766 36.8058 152.678 36.4336 152.675C36.1665 152.672 35.8924 152.713 35.6112 152.798C35.3299 152.881 35.0984 152.987 34.9165 153.118L33.9279 152.999L34.4563 148.703H38.9904V149.641H35.3427L35.0359 152.215H35.087C35.266 152.072 35.4904 151.955 35.7603 151.861C36.0302 151.767 36.3114 151.72 36.604 151.72C37.1381 151.72 37.614 151.848 38.0316 152.104C38.4521 152.357 38.7816 152.703 39.0202 153.143C39.2617 153.584 39.3825 154.087 39.3825 154.652C39.3825 155.209 39.2575 155.706 39.0075 156.143C38.7603 156.578 38.4194 156.922 37.9847 157.175C37.5501 157.425 37.0558 157.55 36.5018 157.55ZM41.2287 157.43V148.703H42.2855V153.033H42.3878L46.3082 148.703H47.6889L44.0241 152.641L47.6889 157.43H46.4105L43.3764 153.374L42.2855 154.601V157.43H41.2287Z" fill="#697077"/>
<line x1="56" y1="152.43" x2="543.27" y2="152.43" stroke="#F5F5F5"/>
<path d="M28.2976 179.297V168.388H28.9964V179.297H28.2976ZM30.6499 171.661C30.5987 171.229 30.3913 170.894 30.0277 170.655C29.6641 170.417 29.218 170.297 28.6896 170.297C28.3033 170.297 27.9652 170.36 27.6754 170.485C27.3885 170.61 27.1641 170.782 27.0021 171C26.843 171.219 26.7635 171.468 26.7635 171.746C26.7635 171.979 26.8189 172.179 26.9297 172.347C27.0433 172.512 27.1882 172.649 27.3643 172.76C27.5405 172.868 27.7251 172.958 27.9183 173.029C28.1115 173.097 28.2891 173.152 28.451 173.195L29.3374 173.434C29.5646 173.493 29.8175 173.576 30.0959 173.681C30.3771 173.786 30.6456 173.929 30.9013 174.111C31.1598 174.29 31.3729 174.52 31.5405 174.801C31.7081 175.083 31.7919 175.428 31.7919 175.837C31.7919 176.309 31.6683 176.735 31.4212 177.115C31.1768 177.496 30.8189 177.799 30.3473 178.023C29.8786 178.247 29.3089 178.36 28.6385 178.36C28.0135 178.36 27.4723 178.259 27.0149 178.057C26.5604 177.855 26.2024 177.574 25.9411 177.213C25.6825 176.853 25.5362 176.434 25.5021 175.956H26.593C26.6214 176.286 26.7322 176.559 26.9254 176.774C27.1214 176.988 27.3686 177.147 27.6669 177.252C27.968 177.354 28.2919 177.405 28.6385 177.405C29.0419 177.405 29.4041 177.34 29.7251 177.209C30.0462 177.076 30.3004 176.891 30.4879 176.655C30.6754 176.417 30.7692 176.138 30.7692 175.82C30.7692 175.53 30.6882 175.294 30.5263 175.113C30.3643 174.931 30.1513 174.783 29.8871 174.669C29.6229 174.556 29.3374 174.456 29.0305 174.371L27.9567 174.064C27.2749 173.868 26.7351 173.588 26.3374 173.225C25.9396 172.861 25.7408 172.385 25.7408 171.797C25.7408 171.309 25.8729 170.882 26.1371 170.519C26.4041 170.152 26.7621 169.868 27.2109 169.667C27.6626 169.462 28.1669 169.36 28.7237 169.36C29.2862 169.36 29.7862 169.461 30.2237 169.662C30.6612 169.861 31.0078 170.134 31.2635 170.48C31.522 170.827 31.6584 171.221 31.6726 171.661H30.6499ZM33.1715 176.417V175.547L37.0067 169.479H37.6374V170.826H37.2113L34.3136 175.411V175.479H39.4783V176.417H33.1715ZM37.2795 178.206V176.152V175.747V169.479H38.2852V178.206H37.2795ZM41.2287 178.206V169.479H42.2855V173.809H42.3878L46.3082 169.479H47.6889L44.0241 173.417L47.6889 178.206H46.4105L43.3764 174.149L42.2855 175.377V178.206H41.2287Z" fill="#697077"/>
<line x1="56" y1="173.206" x2="543.27" y2="173.206" stroke="#F5F5F5"/>
<path d="M28.3562 200.073V189.164H29.055V200.073H28.3562ZM30.7085 192.437C30.6573 192.005 30.4499 191.67 30.0863 191.431C29.7227 191.192 29.2766 191.073 28.7482 191.073C28.3619 191.073 28.0238 191.136 27.734 191.261C27.4471 191.386 27.2227 191.557 27.0607 191.776C26.9016 191.995 26.8221 192.244 26.8221 192.522C26.8221 192.755 26.8775 192.955 26.9883 193.123C27.1019 193.288 27.2468 193.425 27.4229 193.536C27.5991 193.644 27.7837 193.734 27.9769 193.805C28.1701 193.873 28.3477 193.928 28.5096 193.971L29.396 194.209C29.6232 194.269 29.8761 194.351 30.1545 194.457C30.4357 194.562 30.7042 194.705 30.9599 194.887C31.2184 195.066 31.4315 195.296 31.5991 195.577C31.7667 195.859 31.8505 196.204 31.8505 196.613C31.8505 197.084 31.7269 197.511 31.4798 197.891C31.2354 198.272 30.8775 198.575 30.4059 198.799C29.9371 199.023 29.3675 199.136 28.6971 199.136C28.0721 199.136 27.5309 199.035 27.0735 198.833C26.619 198.631 26.261 198.35 25.9996 197.989C25.7411 197.628 25.5948 197.209 25.5607 196.732H26.6516C26.68 197.062 26.7908 197.334 26.984 197.55C27.18 197.763 27.4272 197.923 27.7255 198.028C28.0266 198.13 28.3505 198.181 28.6971 198.181C29.1005 198.181 29.4627 198.116 29.7837 197.985C30.1048 197.851 30.359 197.667 30.5465 197.431C30.734 197.192 30.8278 196.914 30.8278 196.596C30.8278 196.306 30.7468 196.07 30.5849 195.888C30.4229 195.707 30.2099 195.559 29.9457 195.445C29.6815 195.332 29.396 195.232 29.0891 195.147L28.0153 194.84C27.3335 194.644 26.7937 194.364 26.396 194.001C25.9982 193.637 25.7994 193.161 25.7994 192.573C25.7994 192.084 25.9315 191.658 26.1957 191.295C26.4627 190.928 26.8207 190.644 27.2695 190.442C27.7212 190.238 28.2255 190.136 28.7823 190.136C29.3448 190.136 29.8448 190.236 30.2823 190.438C30.7198 190.637 31.0664 190.91 31.3221 191.256C31.5806 191.603 31.717 191.996 31.7312 192.437H30.7085ZM36.3835 199.101C35.821 199.101 35.3196 199.005 34.8793 198.812C34.4418 198.619 34.0938 198.35 33.8352 198.006C33.5795 197.66 33.4403 197.258 33.4176 196.8H34.4915C34.5142 197.082 34.6108 197.325 34.7812 197.529C34.9517 197.731 35.1747 197.887 35.4503 197.998C35.7259 198.109 36.0313 198.164 36.3665 198.164C36.7415 198.164 37.0739 198.099 37.3636 197.968C37.6534 197.837 37.8807 197.655 38.0455 197.423C38.2102 197.19 38.2926 196.92 38.2926 196.613C38.2926 196.292 38.2131 196.009 38.054 195.765C37.8949 195.518 37.6619 195.325 37.3551 195.185C37.0483 195.046 36.6733 194.976 36.2301 194.976H35.5312V194.039H36.2301C36.5767 194.039 36.8807 193.976 37.142 193.851C37.4063 193.726 37.6122 193.55 37.7599 193.323C37.9105 193.096 37.9858 192.829 37.9858 192.522C37.9858 192.226 37.9205 191.969 37.7898 191.751C37.6591 191.532 37.4744 191.361 37.2358 191.239C37 191.117 36.7216 191.056 36.4006 191.056C36.0994 191.056 35.8153 191.111 35.5483 191.222C35.2841 191.33 35.0682 191.488 34.9006 191.695C34.733 191.9 34.642 192.147 34.6278 192.437H33.6051C33.6222 191.979 33.7599 191.579 34.0185 191.235C34.277 190.888 34.6151 190.619 35.0327 190.425C35.4531 190.232 35.9148 190.136 36.4176 190.136C36.9574 190.136 37.4205 190.245 37.8068 190.464C38.1932 190.68 38.4901 190.965 38.6974 191.32C38.9048 191.675 39.0085 192.059 39.0085 192.471C39.0085 192.962 38.8793 193.381 38.6207 193.728C38.3651 194.075 38.017 194.315 37.5767 194.448V194.516C38.1278 194.607 38.5582 194.842 38.8679 195.219C39.1776 195.594 39.3324 196.059 39.3324 196.613C39.3324 197.087 39.2031 197.513 38.9446 197.891C38.6889 198.266 38.3395 198.562 37.8963 198.778C37.4531 198.994 36.9489 199.101 36.3835 199.101ZM41.2287 198.982V190.255H42.2855V194.584H42.3878L46.3082 190.255H47.6889L44.0241 194.192L47.6889 198.982H46.4105L43.3764 194.925L42.2855 196.153V198.982H41.2287Z" fill="#697077"/>
<line x1="56" y1="193.982" x2="543.27" y2="193.982" stroke="#F5F5F5"/>
<path d="M28.7312 220.849V209.94H29.43V220.849H28.7312ZM31.0835 213.212C31.0323 212.781 30.8249 212.445 30.4613 212.207C30.0977 211.968 29.6516 211.849 29.1232 211.849C28.7369 211.849 28.3988 211.911 28.109 212.036C27.8221 212.161 27.5977 212.333 27.4357 212.552C27.2766 212.771 27.1971 213.019 27.1971 213.298C27.1971 213.531 27.2525 213.731 27.3633 213.898C27.4769 214.063 27.6218 214.201 27.7979 214.312C27.9741 214.42 28.1587 214.509 28.3519 214.58C28.5451 214.648 28.7227 214.704 28.8846 214.746L29.771 214.985C29.9982 215.045 30.2511 215.127 30.5295 215.232C30.8107 215.337 31.0792 215.481 31.3349 215.663C31.5934 215.842 31.8065 216.072 31.9741 216.353C32.1417 216.634 32.2255 216.979 32.2255 217.388C32.2255 217.86 32.1019 218.286 31.8548 218.667C31.6104 219.048 31.2525 219.35 30.7809 219.575C30.3121 219.799 29.7425 219.911 29.0721 219.911C28.4471 219.911 27.9059 219.81 27.4485 219.609C26.994 219.407 26.636 219.126 26.3746 218.765C26.1161 218.404 25.9698 217.985 25.9357 217.508H27.0266C27.055 217.837 27.1658 218.11 27.359 218.326C27.555 218.539 27.8022 218.698 28.1005 218.803C28.4016 218.906 28.7255 218.957 29.0721 218.957C29.4755 218.957 29.8377 218.891 30.1587 218.761C30.4798 218.627 30.734 218.442 30.9215 218.207C31.109 217.968 31.2028 217.69 31.2028 217.371C31.2028 217.082 31.1218 216.846 30.9599 216.664C30.7979 216.482 30.5849 216.335 30.3207 216.221C30.0565 216.107 29.771 216.008 29.4641 215.923L28.3903 215.616C27.7085 215.42 27.1687 215.14 26.771 214.776C26.3732 214.413 26.1744 213.937 26.1744 213.349C26.1744 212.86 26.3065 212.434 26.5707 212.07C26.8377 211.704 27.1957 211.42 27.6445 211.218C28.0962 211.013 28.6005 210.911 29.1573 210.911C29.7198 210.911 30.2198 211.012 30.6573 211.214C31.0948 211.413 31.4414 211.685 31.6971 212.032C31.9556 212.379 32.092 212.772 32.1062 213.212H31.0835ZM33.8097 219.758V218.991L36.6903 215.837C37.0284 215.468 37.3068 215.147 37.5256 214.874C37.7443 214.599 37.9063 214.34 38.0114 214.099C38.1193 213.854 38.1733 213.599 38.1733 213.332C38.1733 213.025 38.0994 212.759 37.9517 212.535C37.8068 212.31 37.608 212.137 37.3551 212.015C37.1023 211.893 36.8182 211.832 36.5028 211.832C36.1676 211.832 35.875 211.901 35.625 212.04C35.3778 212.177 35.1861 212.369 35.0497 212.616C34.9162 212.863 34.8494 213.153 34.8494 213.485H33.8438C33.8438 212.974 33.9616 212.525 34.1974 212.138C34.4332 211.752 34.7543 211.451 35.1605 211.235C35.5696 211.019 36.0284 210.911 36.5369 210.911C37.0483 210.911 37.5014 211.019 37.8963 211.235C38.2912 211.451 38.6009 211.742 38.8253 212.109C39.0497 212.475 39.1619 212.883 39.1619 213.332C39.1619 213.653 39.1037 213.967 38.9872 214.273C38.8736 214.577 38.6747 214.917 38.3906 215.292C38.1094 215.664 37.7188 216.119 37.2188 216.656L35.2585 218.752V218.82H39.3153V219.758H33.8097ZM41.2287 219.758V211.031H42.2855V215.36H42.3878L46.3082 211.031H47.6889L44.0241 214.968L47.6889 219.758H46.4105L43.3764 215.701L42.2855 216.928V219.758H41.2287Z" fill="#697077"/>
<line x1="56" y1="214.758" x2="543.27" y2="214.758" stroke="#F5F5F5"/>
<path d="M30.4187 241.625V230.716H31.1175V241.625H30.4187ZM32.771 233.988C32.7198 233.556 32.5124 233.221 32.1488 232.983C31.7852 232.744 31.3391 232.625 30.8107 232.625C30.4244 232.625 30.0863 232.687 29.7965 232.812C29.5096 232.937 29.2852 233.109 29.1232 233.328C28.9641 233.546 28.8846 233.795 28.8846 234.073C28.8846 234.306 28.94 234.507 29.0508 234.674C29.1644 234.839 29.3093 234.977 29.4854 235.088C29.6616 235.196 29.8462 235.285 30.0394 235.356C30.2326 235.424 30.4102 235.48 30.5721 235.522L31.4585 235.761C31.6857 235.821 31.9386 235.903 32.217 236.008C32.4982 236.113 32.7667 236.257 33.0224 236.439C33.2809 236.617 33.494 236.848 33.6616 237.129C33.8292 237.41 33.913 237.755 33.913 238.164C33.913 238.636 33.7894 239.062 33.5423 239.443C33.2979 239.823 32.94 240.126 32.4684 240.35C31.9996 240.575 31.43 240.687 30.7596 240.687C30.1346 240.687 29.5934 240.586 29.136 240.385C28.6815 240.183 28.3235 239.902 28.0621 239.541C27.8036 239.18 27.6573 238.761 27.6232 238.284H28.7141C28.7425 238.613 28.8533 238.886 29.0465 239.102C29.2425 239.315 29.4897 239.474 29.788 239.579C30.0891 239.681 30.413 239.733 30.7596 239.733C31.163 239.733 31.5252 239.667 31.8462 239.537C32.1673 239.403 32.4215 239.218 32.609 238.983C32.7965 238.744 32.8903 238.466 32.8903 238.147C32.8903 237.858 32.8093 237.622 32.6474 237.44C32.4854 237.258 32.2724 237.11 32.0082 236.997C31.744 236.883 31.4585 236.784 31.1516 236.698L30.0778 236.392C29.396 236.196 28.8562 235.916 28.4585 235.552C28.0607 235.189 27.8619 234.713 27.8619 234.125C27.8619 233.636 27.994 233.21 28.2582 232.846C28.5252 232.48 28.8832 232.196 29.332 231.994C29.7837 231.789 30.288 231.687 30.8448 231.687C31.4073 231.687 31.9073 231.788 32.3448 231.99C32.7823 232.189 33.1289 232.461 33.3846 232.808C33.6431 233.154 33.7795 233.548 33.7937 233.988H32.771ZM38.5653 231.806V240.534H37.5085V232.914H37.4574L35.3267 234.329V233.255L37.5085 231.806H38.5653ZM41.2287 240.534V231.806H42.2855V236.136H42.3878L46.3082 231.806H47.6889L44.0241 235.744L47.6889 240.534H46.4105L43.3764 236.477L42.2855 237.704V240.534H41.2287Z" fill="#697077"/>
<line x1="56" y1="235.534" x2="543.27" y2="235.534" stroke="#F5F5F5"/>
<path d="M36.3249 262.4V251.491H37.0238V262.4H36.3249ZM38.6772 254.764C38.6261 254.332 38.4187 253.997 38.055 253.758C37.6914 253.52 37.2454 253.4 36.717 253.4C36.3306 253.4 35.9925 253.463 35.7028 253.588C35.4158 253.713 35.1914 253.885 35.0295 254.103C34.8704 254.322 34.7908 254.571 34.7908 254.849C34.7908 255.082 34.8462 255.282 34.957 255.45C35.0707 255.615 35.2156 255.753 35.3917 255.863C35.5678 255.971 35.7525 256.061 35.9457 256.132C36.1388 256.2 36.3164 256.255 36.4783 256.298L37.3647 256.537C37.592 256.596 37.8448 256.679 38.1232 256.784C38.4045 256.889 38.6729 257.032 38.9286 257.214C39.1871 257.393 39.4002 257.623 39.5678 257.904C39.7354 258.186 39.8192 258.531 39.8192 258.94C39.8192 259.412 39.6957 259.838 39.4485 260.218C39.2042 260.599 38.8462 260.902 38.3746 261.126C37.9059 261.351 37.3363 261.463 36.6658 261.463C36.0408 261.463 35.4996 261.362 35.0423 261.16C34.5877 260.958 34.2298 260.677 33.9684 260.316C33.7099 259.956 33.5636 259.537 33.5295 259.059H34.6204C34.6488 259.389 34.7596 259.662 34.9528 259.878C35.1488 260.091 35.396 260.25 35.6942 260.355C35.9954 260.457 36.3192 260.508 36.6658 260.508C37.0692 260.508 37.4315 260.443 37.7525 260.312C38.0735 260.179 38.3278 259.994 38.5153 259.758C38.7028 259.52 38.7965 259.241 38.7965 258.923C38.7965 258.633 38.7156 258.397 38.5536 258.216C38.3917 258.034 38.1786 257.886 37.9144 257.772C37.6502 257.659 37.3647 257.559 37.0579 257.474L35.984 257.167C35.3022 256.971 34.7624 256.691 34.3647 256.328C33.967 255.964 33.7681 255.488 33.7681 254.9C33.7681 254.412 33.9002 253.985 34.1644 253.622C34.4315 253.255 34.7894 252.971 35.2383 252.77C35.69 252.565 36.1942 252.463 36.7511 252.463C37.3136 252.463 37.8136 252.564 38.2511 252.765C38.6886 252.964 39.0352 253.237 39.2908 253.583C39.5494 253.93 39.6857 254.324 39.6999 254.764H38.6772ZM44.25 261.429C43.608 261.429 43.0611 261.254 42.6094 260.904C42.1577 260.552 41.8125 260.042 41.5739 259.375C41.3352 258.704 41.2159 257.895 41.2159 256.946C41.2159 256.003 41.3352 255.197 41.5739 254.529C41.8153 253.859 42.1619 253.348 42.6136 252.995C43.0682 252.64 43.6136 252.463 44.25 252.463C44.8864 252.463 45.4304 252.64 45.8821 252.995C46.3366 253.348 46.6832 253.859 46.9219 254.529C47.1634 255.197 47.2841 256.003 47.2841 256.946C47.2841 257.895 47.1648 258.704 46.9261 259.375C46.6875 260.042 46.3423 260.552 45.8906 260.904C45.4389 261.254 44.892 261.429 44.25 261.429ZM44.25 260.491C44.8864 260.491 45.3807 260.184 45.733 259.571C46.0852 258.957 46.2614 258.082 46.2614 256.946C46.2614 256.19 46.1804 255.547 46.0185 255.015C45.8594 254.484 45.6293 254.079 45.3281 253.801C45.0298 253.522 44.6705 253.383 44.25 253.383C43.6193 253.383 43.1264 253.694 42.7713 254.316C42.4162 254.936 42.2386 255.812 42.2386 256.946C42.2386 257.701 42.3182 258.343 42.4773 258.872C42.6364 259.4 42.8651 259.802 43.1634 260.078C43.4645 260.353 43.8267 260.491 44.25 260.491Z" fill="#697077"/>
<line x1="56" y1="256.309" x2="543.27" y2="256.309" stroke="#F5F5F5"/>
<rect x="56.5" y="22.9648" width="16" height="229" fill="#F5F5F5"/>
<rect x="56.5" y="99.2981" width="16" height="152.667" fill="#878D96"/>
<path d="M59.1009 263.238H60.1577V269.476C60.1577 270.033 60.0554 270.506 59.8509 270.895C59.6463 271.284 59.358 271.58 58.9858 271.782C58.6136 271.983 58.1747 272.084 57.669 272.084C57.1918 272.084 56.767 271.998 56.3949 271.824C56.0227 271.648 55.7301 271.398 55.517 271.074C55.304 270.75 55.1974 270.365 55.1974 269.919H56.2372C56.2372 270.167 56.2983 270.382 56.4205 270.567C56.5455 270.749 56.7159 270.891 56.9318 270.993C57.1477 271.096 57.3935 271.147 57.669 271.147C57.973 271.147 58.2315 271.083 58.4446 270.955C58.6577 270.827 58.8196 270.64 58.9304 270.392C59.044 270.142 59.1009 269.837 59.1009 269.476V263.238ZM64.0653 272.118C63.6506 272.118 63.2741 272.04 62.9361 271.884C62.598 271.725 62.3295 271.496 62.1307 271.198C61.9318 270.897 61.8324 270.533 61.8324 270.107C61.8324 269.732 61.9063 269.428 62.054 269.195C62.2017 268.959 62.3991 268.775 62.6463 268.641C62.8935 268.507 63.1662 268.408 63.4645 268.343C63.7656 268.275 64.0682 268.221 64.3722 268.181C64.7699 268.13 65.0923 268.091 65.3395 268.066C65.5895 268.037 65.7713 267.99 65.8849 267.925C66.0014 267.86 66.0597 267.746 66.0597 267.584V267.55C66.0597 267.13 65.9446 266.803 65.7145 266.57C65.4872 266.337 65.142 266.221 64.679 266.221C64.1989 266.221 63.8224 266.326 63.5497 266.536C63.277 266.746 63.0852 266.971 62.9744 267.209L62.0199 266.868C62.1903 266.471 62.4176 266.161 62.7017 265.939C62.9886 265.715 63.3011 265.559 63.6392 265.471C63.9801 265.38 64.3153 265.334 64.6449 265.334C64.8551 265.334 65.0966 265.36 65.3693 265.411C65.6449 265.459 65.9105 265.56 66.1662 265.713C66.4247 265.867 66.6392 266.098 66.8097 266.408C66.9801 266.718 67.0653 267.132 67.0653 267.652V271.965H66.0597V271.078H66.0085C65.9403 271.221 65.8267 271.373 65.6676 271.534C65.5085 271.696 65.2969 271.834 65.0327 271.948C64.7685 272.061 64.446 272.118 64.0653 272.118ZM64.2188 271.215C64.6165 271.215 64.9517 271.137 65.2244 270.98C65.5 270.824 65.7074 270.623 65.8466 270.375C65.9886 270.128 66.0597 269.868 66.0597 269.596V268.675C66.017 268.726 65.9233 268.773 65.7784 268.816C65.6364 268.855 65.4716 268.891 65.2841 268.922C65.0994 268.951 64.919 268.976 64.7429 268.999C64.5696 269.019 64.429 269.036 64.321 269.05C64.0597 269.084 63.8153 269.14 63.5881 269.216C63.3636 269.29 63.1818 269.402 63.0426 269.553C62.9063 269.701 62.8381 269.902 62.8381 270.158C62.8381 270.507 62.9673 270.772 63.2259 270.951C63.4872 271.127 63.8182 271.215 64.2188 271.215ZM69.9066 268.027V271.965H68.9009V265.419H69.8725V266.442H69.9577C70.1112 266.11 70.3441 265.843 70.6566 265.641C70.9691 265.436 71.3725 265.334 71.8668 265.334C72.31 265.334 72.6978 265.425 73.0302 265.607C73.3626 265.786 73.6211 266.059 73.8058 266.425C73.9904 266.789 74.0827 267.249 74.0827 267.806V271.965H73.0771V267.874C73.0771 267.36 72.9435 266.959 72.6765 266.672C72.4094 266.382 72.043 266.238 71.5771 266.238C71.256 266.238 70.9691 266.307 70.7163 266.446C70.4663 266.586 70.2688 266.789 70.1239 267.056C69.979 267.323 69.9066 267.647 69.9066 268.027Z" fill="#697077"/>
<rect x="98.8636" y="58.9648" width="16" height="193" fill="#F5F5F5"/>
<rect x="98.8636" y="123.298" width="16" height="128.667" fill="#878D96"/>
<path d="M97.4205 271.965V263.238H102.653V264.175H98.4773V267.124H102.261V268.061H98.4773V271.965H97.4205ZM106.591 272.101C105.96 272.101 105.416 271.962 104.959 271.684C104.504 271.402 104.153 271.01 103.906 270.507C103.662 270.002 103.54 269.414 103.54 268.743C103.54 268.073 103.662 267.482 103.906 266.971C104.153 266.456 104.497 266.056 104.937 265.769C105.381 265.479 105.898 265.334 106.489 265.334C106.83 265.334 107.166 265.391 107.499 265.505C107.831 265.618 108.134 265.803 108.406 266.059C108.679 266.311 108.896 266.647 109.058 267.064C109.22 267.482 109.301 267.996 109.301 268.607V269.033H104.256V268.164H108.278C108.278 267.794 108.205 267.465 108.057 267.175C107.912 266.885 107.705 266.657 107.435 266.489C107.168 266.321 106.852 266.238 106.489 266.238C106.088 266.238 105.741 266.337 105.449 266.536C105.159 266.732 104.936 266.988 104.78 267.303C104.624 267.618 104.545 267.956 104.545 268.317V268.897C104.545 269.391 104.631 269.81 104.801 270.154C104.974 270.495 105.214 270.755 105.521 270.934C105.828 271.11 106.185 271.198 106.591 271.198C106.855 271.198 107.094 271.161 107.307 271.087C107.523 271.01 107.709 270.897 107.865 270.746C108.021 270.593 108.142 270.402 108.227 270.175L109.199 270.448C109.097 270.777 108.925 271.067 108.683 271.317C108.442 271.564 108.143 271.757 107.788 271.897C107.433 272.033 107.034 272.101 106.591 272.101ZM110.967 271.965V263.238H111.973V266.459H112.058C112.132 266.346 112.234 266.201 112.365 266.025C112.499 265.846 112.689 265.686 112.936 265.547C113.186 265.405 113.524 265.334 113.95 265.334C114.501 265.334 114.987 265.472 115.408 265.748C115.828 266.023 116.156 266.414 116.392 266.919C116.628 267.425 116.746 268.022 116.746 268.709C116.746 269.402 116.628 270.003 116.392 270.512C116.156 271.017 115.83 271.409 115.412 271.688C114.994 271.963 114.513 272.101 113.967 272.101C113.547 272.101 113.21 272.032 112.957 271.892C112.705 271.75 112.51 271.59 112.374 271.411C112.237 271.229 112.132 271.078 112.058 270.959H111.939V271.965H110.967ZM111.956 268.692C111.956 269.186 112.028 269.623 112.173 270C112.318 270.375 112.53 270.669 112.808 270.882C113.087 271.093 113.428 271.198 113.831 271.198C114.251 271.198 114.602 271.087 114.884 270.865C115.168 270.641 115.381 270.34 115.523 269.962C115.668 269.581 115.74 269.158 115.74 268.692C115.74 268.232 115.669 267.817 115.527 267.448C115.388 267.076 115.176 266.782 114.892 266.566C114.611 266.347 114.257 266.238 113.831 266.238C113.422 266.238 113.078 266.341 112.8 266.549C112.521 266.753 112.311 267.04 112.169 267.409C112.027 267.776 111.956 268.203 111.956 268.692Z" fill="#697077"/>
<rect x="141.227" y="38.9648" width="16" height="213" fill="#F5F5F5"/>
<rect x="141.227" y="109.965" width="16" height="142" fill="#878D96"/>
<path d="M139.382 263.238H140.643L143.609 270.482H143.711L146.677 263.238H147.939V271.965H146.95V265.334H146.865L144.137 271.965H143.183L140.456 265.334H140.37V271.965H139.382V263.238ZM151.847 272.118C151.433 272.118 151.056 272.04 150.718 271.884C150.38 271.725 150.111 271.496 149.913 271.198C149.714 270.897 149.614 270.533 149.614 270.107C149.614 269.732 149.688 269.428 149.836 269.195C149.984 268.959 150.181 268.775 150.428 268.641C150.675 268.507 150.948 268.408 151.246 268.343C151.548 268.275 151.85 268.221 152.154 268.181C152.552 268.13 152.874 268.091 153.121 268.066C153.371 268.037 153.553 267.99 153.667 267.925C153.783 267.86 153.842 267.746 153.842 267.584V267.55C153.842 267.13 153.727 266.803 153.496 266.57C153.269 266.337 152.924 266.221 152.461 266.221C151.981 266.221 151.604 266.326 151.332 266.536C151.059 266.746 150.867 266.971 150.756 267.209L149.802 266.868C149.972 266.471 150.2 266.161 150.484 265.939C150.771 265.715 151.083 265.559 151.421 265.471C151.762 265.38 152.097 265.334 152.427 265.334C152.637 265.334 152.879 265.36 153.151 265.411C153.427 265.459 153.692 265.56 153.948 265.713C154.207 265.867 154.421 266.098 154.592 266.408C154.762 266.718 154.847 267.132 154.847 267.652V271.965H153.842V271.078H153.79C153.722 271.221 153.609 271.373 153.45 271.534C153.29 271.696 153.079 271.834 152.815 271.948C152.55 272.061 152.228 272.118 151.847 272.118ZM152.001 271.215C152.398 271.215 152.734 271.137 153.006 270.98C153.282 270.824 153.489 270.623 153.629 270.375C153.771 270.128 153.842 269.868 153.842 269.596V268.675C153.799 268.726 153.705 268.773 153.56 268.816C153.418 268.855 153.254 268.891 153.066 268.922C152.881 268.951 152.701 268.976 152.525 268.999C152.352 269.019 152.211 269.036 152.103 269.05C151.842 269.084 151.597 269.14 151.37 269.216C151.146 269.29 150.964 269.402 150.825 269.553C150.688 269.701 150.62 269.902 150.62 270.158C150.62 270.507 150.749 270.772 151.008 270.951C151.269 271.127 151.6 271.215 152.001 271.215ZM156.683 271.965V265.419H157.654V266.408H157.723C157.842 266.084 158.058 265.821 158.37 265.62C158.683 265.418 159.035 265.317 159.427 265.317C159.501 265.317 159.593 265.319 159.704 265.321C159.815 265.324 159.899 265.328 159.956 265.334V266.357C159.922 266.348 159.843 266.336 159.721 266.319C159.602 266.299 159.475 266.289 159.342 266.289C159.024 266.289 158.74 266.355 158.49 266.489C158.243 266.62 158.047 266.801 157.902 267.034C157.76 267.265 157.689 267.527 157.689 267.823V271.965H156.683Z" fill="#697077"/>
<rect x="183.591" y="52.9648" width="16" height="199" fill="#F5F5F5"/>
<rect x="183.591" y="119.298" width="16" height="132.667" fill="#878D96"/>
<path d="M183.119 271.965H182.011L185.216 263.238H186.306L189.511 271.965H188.403L185.795 264.618H185.727L183.119 271.965ZM183.528 268.556H187.994V269.493H183.528V268.556ZM190.734 274.419V265.419H191.706V266.459H191.825C191.899 266.346 192.001 266.201 192.132 266.025C192.265 265.846 192.456 265.686 192.703 265.547C192.953 265.405 193.291 265.334 193.717 265.334C194.268 265.334 194.754 265.472 195.174 265.748C195.595 266.023 195.923 266.414 196.159 266.919C196.395 267.425 196.512 268.022 196.512 268.709C196.512 269.402 196.395 270.003 196.159 270.512C195.923 271.017 195.596 271.409 195.179 271.688C194.761 271.963 194.279 272.101 193.734 272.101C193.314 272.101 192.977 272.032 192.724 271.892C192.471 271.75 192.277 271.59 192.14 271.411C192.004 271.229 191.899 271.078 191.825 270.959H191.74V274.419H190.734ZM191.723 268.692C191.723 269.186 191.795 269.623 191.94 270C192.085 270.375 192.297 270.669 192.575 270.882C192.853 271.093 193.194 271.198 193.598 271.198C194.018 271.198 194.369 271.087 194.65 270.865C194.934 270.641 195.147 270.34 195.289 269.962C195.434 269.581 195.507 269.158 195.507 268.692C195.507 268.232 195.436 267.817 195.294 267.448C195.154 267.076 194.943 266.782 194.659 266.566C194.377 266.347 194.024 266.238 193.598 266.238C193.189 266.238 192.845 266.341 192.566 266.549C192.288 266.753 192.078 267.04 191.936 267.409C191.794 267.776 191.723 268.203 191.723 268.692ZM198.047 271.965V265.419H199.018V266.408H199.086C199.206 266.084 199.422 265.821 199.734 265.62C200.047 265.418 200.399 265.317 200.791 265.317C200.865 265.317 200.957 265.319 201.068 265.321C201.179 265.324 201.262 265.328 201.319 265.334V266.357C201.285 266.348 201.207 266.336 201.085 266.319C200.966 266.299 200.839 266.289 200.706 266.289C200.387 266.289 200.103 266.355 199.853 266.489C199.606 266.62 199.41 266.801 199.265 267.034C199.123 267.265 199.052 267.527 199.052 267.823V271.965H198.047Z" fill="#697077"/>
<rect x="225.955" y="72.9648" width="16" height="179" fill="#F5F5F5"/>
<rect x="225.955" y="132.632" width="16" height="119.333" fill="#878D96"/>
<path d="M223.129 263.238H224.39L227.356 270.482H227.458L230.424 263.238H231.685V271.965H230.697V265.334H230.611L227.884 271.965H226.93L224.202 265.334H224.117V271.965H223.129V263.238ZM235.594 272.118C235.179 272.118 234.803 272.04 234.465 271.884C234.127 271.725 233.858 271.496 233.659 271.198C233.461 270.897 233.361 270.533 233.361 270.107C233.361 269.732 233.435 269.428 233.583 269.195C233.73 268.959 233.928 268.775 234.175 268.641C234.422 268.507 234.695 268.408 234.993 268.343C235.294 268.275 235.597 268.221 235.901 268.181C236.299 268.13 236.621 268.091 236.868 268.066C237.118 268.037 237.3 267.99 237.414 267.925C237.53 267.86 237.588 267.746 237.588 267.584V267.55C237.588 267.13 237.473 266.803 237.243 266.57C237.016 266.337 236.671 266.221 236.208 266.221C235.728 266.221 235.351 266.326 235.078 266.536C234.806 266.746 234.614 266.971 234.503 267.209L233.549 266.868C233.719 266.471 233.946 266.161 234.23 265.939C234.517 265.715 234.83 265.559 235.168 265.471C235.509 265.38 235.844 265.334 236.174 265.334C236.384 265.334 236.625 265.36 236.898 265.411C237.174 265.459 237.439 265.56 237.695 265.713C237.953 265.867 238.168 266.098 238.338 266.408C238.509 266.718 238.594 267.132 238.594 267.652V271.965H237.588V271.078H237.537C237.469 271.221 237.355 271.373 237.196 271.534C237.037 271.696 236.826 271.834 236.561 271.948C236.297 272.061 235.975 272.118 235.594 272.118ZM235.747 271.215C236.145 271.215 236.48 271.137 236.753 270.98C237.029 270.824 237.236 270.623 237.375 270.375C237.517 270.128 237.588 269.868 237.588 269.596V268.675C237.546 268.726 237.452 268.773 237.307 268.816C237.165 268.855 237 268.891 236.813 268.922C236.628 268.951 236.448 268.976 236.272 268.999C236.098 269.019 235.958 269.036 235.85 269.05C235.588 269.084 235.344 269.14 235.117 269.216C234.892 269.29 234.711 269.402 234.571 269.553C234.435 269.701 234.367 269.902 234.367 270.158C234.367 270.507 234.496 270.772 234.755 270.951C235.016 271.127 235.347 271.215 235.747 271.215ZM240.843 274.419C240.673 274.419 240.521 274.405 240.387 274.377C240.254 274.351 240.161 274.326 240.11 274.3L240.366 273.414C240.61 273.476 240.826 273.499 241.013 273.482C241.201 273.465 241.367 273.381 241.512 273.23C241.66 273.083 241.795 272.843 241.917 272.51L242.104 271.999L239.684 265.419H240.775L242.582 270.635H242.65L244.457 265.419H245.548L242.769 272.919C242.644 273.257 242.489 273.537 242.305 273.759C242.12 273.983 241.906 274.15 241.661 274.257C241.42 274.365 241.147 274.419 240.843 274.419Z" fill="#697077"/>
<rect x="268.318" y="94.9648" width="16" height="157" fill="#F5F5F5"/>
<rect x="268.318" y="147.298" width="16" height="104.667" fill="#878D96"/>
<path d="M270.708 263.238H271.765V269.476C271.765 270.033 271.663 270.506 271.458 270.895C271.254 271.284 270.965 271.58 270.593 271.782C270.221 271.983 269.782 272.084 269.276 272.084C268.799 272.084 268.374 271.998 268.002 271.824C267.63 271.648 267.337 271.398 267.124 271.074C266.911 270.75 266.805 270.365 266.805 269.919H267.844C267.844 270.167 267.906 270.382 268.028 270.567C268.153 270.749 268.323 270.891 268.539 270.993C268.755 271.096 269.001 271.147 269.276 271.147C269.58 271.147 269.839 271.083 270.052 270.955C270.265 270.827 270.427 270.64 270.538 270.392C270.651 270.142 270.708 269.837 270.708 269.476V263.238ZM277.871 269.289V265.419H278.877V271.965H277.871V270.857H277.803C277.65 271.189 277.411 271.472 277.087 271.705C276.763 271.935 276.354 272.05 275.86 272.05C275.451 272.05 275.087 271.961 274.769 271.782C274.451 271.6 274.201 271.327 274.019 270.963C273.837 270.597 273.746 270.135 273.746 269.578V265.419H274.752V269.51C274.752 269.988 274.886 270.368 275.153 270.652C275.423 270.936 275.766 271.078 276.184 271.078C276.434 271.078 276.688 271.015 276.947 270.887C277.208 270.759 277.427 270.563 277.603 270.299C277.782 270.034 277.871 269.698 277.871 269.289ZM281.725 268.027V271.965H280.719V265.419H281.691V266.442H281.776C281.929 266.11 282.162 265.843 282.475 265.641C282.787 265.436 283.191 265.334 283.685 265.334C284.128 265.334 284.516 265.425 284.848 265.607C285.181 265.786 285.439 266.059 285.624 266.425C285.809 266.789 285.901 267.249 285.901 267.806V271.965H284.895V267.874C284.895 267.36 284.762 266.959 284.495 266.672C284.228 266.382 283.861 266.238 283.395 266.238C283.074 266.238 282.787 266.307 282.534 266.446C282.284 266.586 282.087 266.789 281.942 267.056C281.797 267.323 281.725 267.647 281.725 268.027Z" fill="#697077"/>
<rect x="310.682" y="79.9648" width="16" height="172" fill="#F5F5F5"/>
<rect x="310.682" y="137.298" width="16" height="114.667" fill="#878D96"/>
<path d="M315.244 263.238H316.3V269.476C316.3 270.033 316.198 270.506 315.994 270.895C315.789 271.284 315.501 271.58 315.129 271.782C314.756 271.983 314.317 272.084 313.812 272.084C313.334 272.084 312.91 271.998 312.538 271.824C312.165 271.648 311.873 271.398 311.66 271.074C311.447 270.75 311.34 270.365 311.34 269.919H312.38C312.38 270.167 312.441 270.382 312.563 270.567C312.688 270.749 312.859 270.891 313.075 270.993C313.29 271.096 313.536 271.147 313.812 271.147C314.116 271.147 314.374 271.083 314.587 270.955C314.8 270.827 314.962 270.64 315.073 270.392C315.187 270.142 315.244 269.837 315.244 269.476V263.238ZM322.407 269.289V265.419H323.413V271.965H322.407V270.857H322.339C322.185 271.189 321.947 271.472 321.623 271.705C321.299 271.935 320.89 272.05 320.396 272.05C319.986 272.05 319.623 271.961 319.305 271.782C318.986 271.6 318.736 271.327 318.555 270.963C318.373 270.597 318.282 270.135 318.282 269.578V265.419H319.288V269.51C319.288 269.988 319.421 270.368 319.688 270.652C319.958 270.936 320.302 271.078 320.719 271.078C320.969 271.078 321.224 271.015 321.482 270.887C321.744 270.759 321.962 270.563 322.138 270.299C322.317 270.034 322.407 269.698 322.407 269.289ZM326.26 263.238V271.965H325.255V263.238H326.26Z" fill="#697077"/>
<rect x="353.045" y="58.9648" width="16" height="193" fill="#F5F5F5"/>
<rect x="353.045" y="123.298" width="16" height="128.667" fill="#878D96"/>
<path d="M351.566 271.965H350.458L353.662 263.238H354.753L357.958 271.965H356.85L354.242 264.618H354.174L351.566 271.965ZM351.975 268.556H356.441V269.493H351.975V268.556ZM363.306 269.289V265.419H364.311V271.965H363.306V270.857H363.238C363.084 271.189 362.846 271.472 362.522 271.705C362.198 271.935 361.789 272.05 361.294 272.05C360.885 272.05 360.522 271.961 360.203 271.782C359.885 271.6 359.635 271.327 359.453 270.963C359.272 270.597 359.181 270.135 359.181 269.578V265.419H360.186V269.51C360.186 269.988 360.32 270.368 360.587 270.652C360.857 270.936 361.201 271.078 361.618 271.078C361.868 271.078 362.123 271.015 362.381 270.887C362.642 270.759 362.861 270.563 363.037 270.299C363.216 270.034 363.306 269.698 363.306 269.289ZM368.795 274.556C368.31 274.556 367.892 274.493 367.543 274.368C367.193 274.246 366.902 274.084 366.669 273.882C366.439 273.684 366.256 273.471 366.119 273.243L366.92 272.681C367.011 272.8 367.126 272.936 367.266 273.09C367.405 273.246 367.595 273.381 367.837 273.495C368.081 273.611 368.401 273.669 368.795 273.669C369.324 273.669 369.76 273.542 370.104 273.286C370.447 273.03 370.619 272.63 370.619 272.084V270.755H370.534C370.46 270.874 370.355 271.022 370.219 271.198C370.085 271.371 369.892 271.526 369.639 271.662C369.389 271.796 369.051 271.863 368.625 271.863C368.097 271.863 367.622 271.738 367.202 271.488C366.784 271.238 366.453 270.874 366.209 270.397C365.967 269.919 365.847 269.34 365.847 268.658C365.847 267.988 365.964 267.404 366.2 266.907C366.436 266.407 366.764 266.02 367.185 265.748C367.605 265.472 368.091 265.334 368.642 265.334C369.068 265.334 369.406 265.405 369.656 265.547C369.909 265.686 370.102 265.846 370.236 266.025C370.372 266.201 370.477 266.346 370.551 266.459H370.653V265.419H371.625V272.152C371.625 272.715 371.497 273.172 371.241 273.525C370.989 273.88 370.648 274.14 370.219 274.304C369.793 274.472 369.318 274.556 368.795 274.556ZM368.761 270.959C369.165 270.959 369.506 270.867 369.784 270.682C370.062 270.498 370.274 270.232 370.419 269.885C370.564 269.539 370.636 269.124 370.636 268.641C370.636 268.169 370.565 267.753 370.423 267.392C370.281 267.032 370.071 266.749 369.793 266.544C369.514 266.34 369.17 266.238 368.761 266.238C368.335 266.238 367.98 266.346 367.696 266.561C367.415 266.777 367.203 267.067 367.061 267.431C366.922 267.794 366.852 268.198 366.852 268.641C366.852 269.096 366.923 269.498 367.065 269.847C367.21 270.194 367.423 270.466 367.705 270.665C367.989 270.861 368.341 270.959 368.761 270.959Z" fill="#697077"/>
<rect x="395.409" y="52.9648" width="16" height="199" fill="#F5F5F5"/>
<rect x="395.409" y="119.298" width="16" height="132.667" fill="#878D96"/>
<path d="M398.289 265.419C398.238 264.988 398.031 264.652 397.667 264.414C397.304 264.175 396.858 264.056 396.329 264.056C395.943 264.056 395.605 264.118 395.315 264.243C395.028 264.368 394.804 264.54 394.642 264.759C394.483 264.978 394.403 265.226 394.403 265.505C394.403 265.738 394.458 265.938 394.569 266.105C394.683 266.27 394.828 266.408 395.004 266.519C395.18 266.627 395.365 266.716 395.558 266.787C395.751 266.855 395.929 266.911 396.091 266.953L396.977 267.192C397.204 267.252 397.457 267.334 397.735 267.439C398.017 267.544 398.285 267.688 398.541 267.87C398.799 268.049 399.012 268.279 399.18 268.56C399.348 268.841 399.431 269.186 399.431 269.596C399.431 270.067 399.308 270.493 399.061 270.874C398.816 271.255 398.458 271.557 397.987 271.782C397.518 272.006 396.949 272.118 396.278 272.118C395.653 272.118 395.112 272.017 394.654 271.816C394.2 271.614 393.842 271.333 393.581 270.972C393.322 270.611 393.176 270.192 393.142 269.715H394.233C394.261 270.044 394.372 270.317 394.565 270.533C394.761 270.746 395.008 270.905 395.306 271.01C395.608 271.113 395.931 271.164 396.278 271.164C396.681 271.164 397.044 271.098 397.365 270.968C397.686 270.834 397.94 270.65 398.127 270.414C398.315 270.175 398.409 269.897 398.409 269.578C398.409 269.289 398.328 269.053 398.166 268.871C398.004 268.689 397.791 268.542 397.527 268.428C397.262 268.314 396.977 268.215 396.67 268.13L395.596 267.823C394.914 267.627 394.375 267.347 393.977 266.983C393.579 266.62 393.38 266.144 393.38 265.556C393.38 265.067 393.512 264.641 393.777 264.277C394.044 263.911 394.402 263.627 394.85 263.425C395.302 263.221 395.806 263.118 396.363 263.118C396.926 263.118 397.426 263.219 397.863 263.421C398.301 263.62 398.647 263.892 398.903 264.239C399.162 264.586 399.298 264.979 399.312 265.419H398.289ZM403.777 272.101C403.146 272.101 402.602 271.962 402.145 271.684C401.69 271.402 401.339 271.01 401.092 270.507C400.848 270.002 400.726 269.414 400.726 268.743C400.726 268.073 400.848 267.482 401.092 266.971C401.339 266.456 401.683 266.056 402.124 265.769C402.567 265.479 403.084 265.334 403.675 265.334C404.016 265.334 404.352 265.391 404.685 265.505C405.017 265.618 405.32 265.803 405.592 266.059C405.865 266.311 406.082 266.647 406.244 267.064C406.406 267.482 406.487 267.996 406.487 268.607V269.033H401.442V268.164H405.464C405.464 267.794 405.391 267.465 405.243 267.175C405.098 266.885 404.891 266.657 404.621 266.489C404.354 266.321 404.038 266.238 403.675 266.238C403.274 266.238 402.928 266.337 402.635 266.536C402.345 266.732 402.122 266.988 401.966 267.303C401.81 267.618 401.732 267.956 401.732 268.317V268.897C401.732 269.391 401.817 269.81 401.987 270.154C402.161 270.495 402.401 270.755 402.707 270.934C403.014 271.11 403.371 271.198 403.777 271.198C404.041 271.198 404.28 271.161 404.493 271.087C404.709 271.01 404.895 270.897 405.051 270.746C405.207 270.593 405.328 270.402 405.413 270.175L406.385 270.448C406.283 270.777 406.111 271.067 405.869 271.317C405.628 271.564 405.33 271.757 404.974 271.897C404.619 272.033 404.22 272.101 403.777 272.101ZM408.017 274.419V265.419H408.989V266.459H409.108C409.182 266.346 409.284 266.201 409.415 266.025C409.548 265.846 409.739 265.686 409.986 265.547C410.236 265.405 410.574 265.334 411 265.334C411.551 265.334 412.037 265.472 412.457 265.748C412.878 266.023 413.206 266.414 413.442 266.919C413.678 267.425 413.795 268.022 413.795 268.709C413.795 269.402 413.678 270.003 413.442 270.512C413.206 271.017 412.879 271.409 412.462 271.688C412.044 271.963 411.562 272.101 411.017 272.101C410.597 272.101 410.26 272.032 410.007 271.892C409.754 271.75 409.56 271.59 409.423 271.411C409.287 271.229 409.182 271.078 409.108 270.959H409.023V274.419H408.017ZM409.006 268.692C409.006 269.186 409.078 269.623 409.223 270C409.368 270.375 409.58 270.669 409.858 270.882C410.136 271.093 410.477 271.198 410.881 271.198C411.301 271.198 411.652 271.087 411.933 270.865C412.217 270.641 412.43 270.34 412.572 269.962C412.717 269.581 412.79 269.158 412.79 268.692C412.79 268.232 412.719 267.817 412.577 267.448C412.437 267.076 412.226 266.782 411.942 266.566C411.661 266.347 411.307 266.238 410.881 266.238C410.472 266.238 410.128 266.341 409.849 266.549C409.571 266.753 409.361 267.04 409.219 267.409C409.077 267.776 409.006 268.203 409.006 268.692Z" fill="#697077"/>
<rect x="437.773" y="38.9648" width="16" height="213" fill="#F5F5F5"/>
<rect x="437.773" y="109.965" width="16" height="142" fill="#878D96"/>
<path d="M444.49 267.601C444.49 268.522 444.324 269.317 443.991 269.988C443.659 270.658 443.203 271.175 442.624 271.539C442.044 271.902 441.382 272.084 440.638 272.084C439.893 272.084 439.232 271.902 438.652 271.539C438.072 271.175 437.616 270.658 437.284 269.988C436.952 269.317 436.786 268.522 436.786 267.601C436.786 266.681 436.952 265.885 437.284 265.215C437.616 264.544 438.072 264.027 438.652 263.664C439.232 263.3 439.893 263.118 440.638 263.118C441.382 263.118 442.044 263.3 442.624 263.664C443.203 264.027 443.659 264.544 443.991 265.215C444.324 265.885 444.49 266.681 444.49 267.601ZM443.467 267.601C443.467 266.846 443.341 266.208 443.088 265.688C442.838 265.168 442.499 264.775 442.07 264.507C441.643 264.24 441.166 264.107 440.638 264.107C440.109 264.107 439.631 264.24 439.202 264.507C438.776 264.775 438.436 265.168 438.183 265.688C437.933 266.208 437.808 266.846 437.808 267.601C437.808 268.357 437.933 268.995 438.183 269.515C438.436 270.034 438.776 270.428 439.202 270.695C439.631 270.962 440.109 271.096 440.638 271.096C441.166 271.096 441.643 270.962 442.07 270.695C442.499 270.428 442.838 270.034 443.088 269.515C443.341 268.995 443.467 268.357 443.467 267.601ZM448.79 272.101C448.176 272.101 447.648 271.956 447.205 271.667C446.761 271.377 446.42 270.978 446.182 270.469C445.943 269.961 445.824 269.38 445.824 268.726C445.824 268.061 445.946 267.475 446.19 266.966C446.438 266.455 446.781 266.056 447.222 265.769C447.665 265.479 448.182 265.334 448.773 265.334C449.233 265.334 449.648 265.419 450.017 265.59C450.386 265.76 450.689 265.999 450.925 266.306C451.161 266.613 451.307 266.971 451.364 267.38H450.358C450.281 267.081 450.111 266.817 449.847 266.587C449.585 266.354 449.233 266.238 448.79 266.238C448.398 266.238 448.054 266.34 447.759 266.544C447.466 266.746 447.237 267.032 447.072 267.401C446.911 267.767 446.83 268.198 446.83 268.692C446.83 269.198 446.909 269.638 447.068 270.013C447.23 270.388 447.457 270.679 447.75 270.887C448.045 271.094 448.392 271.198 448.79 271.198C449.051 271.198 449.288 271.152 449.501 271.061C449.714 270.971 449.895 270.84 450.043 270.669C450.19 270.499 450.295 270.294 450.358 270.056H451.364C451.307 270.442 451.166 270.79 450.942 271.1C450.72 271.407 450.426 271.651 450.06 271.833C449.696 272.012 449.273 272.101 448.79 272.101ZM455.68 265.419V266.272H452.288V265.419H455.68ZM453.277 263.851H454.283V270.09C454.283 270.374 454.324 270.587 454.406 270.729C454.491 270.868 454.599 270.962 454.73 271.01C454.864 271.056 455.004 271.078 455.152 271.078C455.263 271.078 455.354 271.073 455.425 271.061C455.496 271.047 455.553 271.036 455.595 271.027L455.8 271.931C455.732 271.956 455.636 271.982 455.514 272.007C455.392 272.036 455.237 272.05 455.05 272.05C454.766 272.05 454.487 271.989 454.214 271.867C453.945 271.745 453.72 271.559 453.541 271.309C453.365 271.059 453.277 270.743 453.277 270.363V263.851Z" fill="#697077"/>
<rect x="480.136" y="29.9648" width="16" height="222" fill="#F5F5F5"/>
<rect x="480.136" y="103.965" width="16" height="148" fill="#878D96"/>
<path d="M484.973 263.238V271.965H483.95L479.195 265.113H479.109V271.965H478.053V263.238H479.075L483.848 270.107H483.933V263.238H484.973ZM489.61 272.101C489.02 272.101 488.501 271.961 488.055 271.679C487.612 271.398 487.265 271.005 487.015 270.499C486.768 269.993 486.645 269.402 486.645 268.726C486.645 268.044 486.768 267.449 487.015 266.941C487.265 266.432 487.612 266.037 488.055 265.756C488.501 265.475 489.02 265.334 489.61 265.334C490.201 265.334 490.718 265.475 491.162 265.756C491.608 266.037 491.954 266.432 492.201 266.941C492.451 267.449 492.576 268.044 492.576 268.726C492.576 269.402 492.451 269.993 492.201 270.499C491.954 271.005 491.608 271.398 491.162 271.679C490.718 271.961 490.201 272.101 489.61 272.101ZM489.61 271.198C490.059 271.198 490.429 271.083 490.718 270.853C491.008 270.623 491.223 270.32 491.362 269.945C491.501 269.57 491.571 269.164 491.571 268.726C491.571 268.289 491.501 267.881 491.362 267.503C491.223 267.125 491.008 266.82 490.718 266.587C490.429 266.354 490.059 266.238 489.61 266.238C489.162 266.238 488.792 266.354 488.502 266.587C488.213 266.82 487.998 267.125 487.859 267.503C487.72 267.881 487.65 268.289 487.65 268.726C487.65 269.164 487.72 269.57 487.859 269.945C487.998 270.32 488.213 270.623 488.502 270.853C488.792 271.083 489.162 271.198 489.61 271.198ZM499.229 265.419L496.809 271.965H495.786L493.366 265.419H494.457L496.263 270.635H496.332L498.138 265.419H499.229Z" fill="#697077"/>
<rect x="522.5" y="16.9648" width="16" height="235" fill="#F5F5F5"/>
<rect x="522.5" y="95.2981" width="16" height="156.667" fill="#878D96"/>
<path d="M523.438 271.965H520.744V263.238H523.557C524.403 263.238 525.128 263.412 525.73 263.762C526.332 264.108 526.794 264.607 527.115 265.257C527.436 265.905 527.597 266.681 527.597 267.584C527.597 268.493 527.435 269.276 527.111 269.932C526.787 270.586 526.315 271.088 525.696 271.441C525.077 271.79 524.324 271.965 523.438 271.965ZM521.801 271.027H523.369C524.091 271.027 524.689 270.888 525.163 270.61C525.638 270.331 525.991 269.935 526.224 269.421C526.457 268.907 526.574 268.294 526.574 267.584C526.574 266.88 526.459 266.273 526.229 265.765C525.999 265.253 525.655 264.861 525.197 264.588C524.74 264.313 524.17 264.175 523.489 264.175H521.801V271.027ZM531.977 272.101C531.347 272.101 530.803 271.962 530.345 271.684C529.891 271.402 529.54 271.01 529.293 270.507C529.048 270.002 528.926 269.414 528.926 268.743C528.926 268.073 529.048 267.482 529.293 266.971C529.54 266.456 529.884 266.056 530.324 265.769C530.767 265.479 531.284 265.334 531.875 265.334C532.216 265.334 532.553 265.391 532.885 265.505C533.217 265.618 533.52 265.803 533.793 266.059C534.065 266.311 534.283 266.647 534.445 267.064C534.607 267.482 534.688 267.996 534.688 268.607V269.033H529.642V268.164H533.665C533.665 267.794 533.591 267.465 533.443 267.175C533.298 266.885 533.091 266.657 532.821 266.489C532.554 266.321 532.239 266.238 531.875 266.238C531.474 266.238 531.128 266.337 530.835 266.536C530.545 266.732 530.322 266.988 530.166 267.303C530.01 267.618 529.932 267.956 529.932 268.317V268.897C529.932 269.391 530.017 269.81 530.188 270.154C530.361 270.495 530.601 270.755 530.908 270.934C531.214 271.11 531.571 271.198 531.977 271.198C532.241 271.198 532.48 271.161 532.693 271.087C532.909 271.01 533.095 270.897 533.251 270.746C533.408 270.593 533.528 270.402 533.614 270.175L534.585 270.448C534.483 270.777 534.311 271.067 534.07 271.317C533.828 271.564 533.53 271.757 533.175 271.897C532.82 272.033 532.42 272.101 531.977 272.101ZM538.876 272.101C538.263 272.101 537.734 271.956 537.291 271.667C536.848 271.377 536.507 270.978 536.268 270.469C536.03 269.961 535.911 269.38 535.911 268.726C535.911 268.061 536.033 267.475 536.277 266.966C536.524 266.455 536.868 266.056 537.308 265.769C537.751 265.479 538.268 265.334 538.859 265.334C539.32 265.334 539.734 265.419 540.104 265.59C540.473 265.76 540.776 265.999 541.011 266.306C541.247 266.613 541.393 266.971 541.45 267.38H540.445C540.368 267.081 540.197 266.817 539.933 266.587C539.672 266.354 539.32 266.238 538.876 266.238C538.484 266.238 538.141 266.34 537.845 266.544C537.553 266.746 537.324 267.032 537.159 267.401C536.997 267.767 536.916 268.198 536.916 268.692C536.916 269.198 536.996 269.638 537.155 270.013C537.317 270.388 537.544 270.679 537.837 270.887C538.132 271.094 538.479 271.198 538.876 271.198C539.138 271.198 539.375 271.152 539.588 271.061C539.801 270.971 539.982 270.84 540.129 270.669C540.277 270.499 540.382 270.294 540.445 270.056H541.45C541.393 270.442 541.253 270.79 541.028 271.1C540.807 271.407 540.513 271.651 540.146 271.833C539.783 272.012 539.359 272.101 538.876 272.101Z" fill="#697077"/>
</svg>
