<svg width="42" height="56" viewBox="0 0 42 56" fill="none" xmlns="http://www.w3.org/2000/svg">
<path d="M16.8 3.27031L18.55 0.940625C18.9875 0.35 19.6875 0 20.4203 0C21.7 0 22.75 1.05 22.75 2.32969V4.74688C22.75 6.17969 23.3406 7.55781 24.3797 8.54219L33.6438 17.3906C38.9813 22.4875 42 29.5531 42 36.9359C42 47.4688 33.4688 56 22.9359 56H21C9.40625 56 0 46.5938 0 35V34.5844C0 29.2469 2.12187 24.1281 5.89531 20.3547L6.27812 19.9719C6.7375 19.5125 7.37187 19.25 8.02812 19.25C9.39531 19.25 10.5 20.3547 10.5 21.7219V31.5C10.5 35.3609 13.6391 38.5 17.5 38.5C21.3609 38.5 24.5 35.3609 24.5 31.5V31.0734C24.5 29.1047 23.7125 27.2125 22.3234 25.8234L18.1016 21.6016C15.4766 18.9766 14 15.4 14 11.6813C14 8.65156 14.9844 5.6875 16.8 3.27031Z" fill="#85332C"/>
</svg>
